<?xml version="1.0" encoding="UTF-8"?><svg id="Layer_2" xmlns="http://www.w3.org/2000/svg" viewBox="0 0 184.59 186.36"><defs><style>.cls-1{fill:#00a0ce;}</style></defs><g id="Logo"><path class="cls-1" d="m171.1,76.34c-.43.14-.85.28-1.28.4-3.58,1.07-6.86,1.59-6.86,1.59,0,0-.5,3.75-2.6,8.06-2.5,5.12-7.28,11.03-16.22,12.42,0,0-1.5,1.61-4.53,2.38-.93.24-2.01.4-3.23.4.94-.4,1.85-.88,2.72-1.46,1.21-.8,2.34-1.76,3.33-2.91,8.95-1.69,12.95-8.3,14.75-14.1,1.56-5.05,1.44-9.48,1.44-9.48,2.48-.04,4.7-.36,6.68-.83.77-.19,1.5-.4,2.2-.63,2.29-.75,4.18-1.69,5.68-2.62,2.95-1.83,4.39-3.59,4.39-3.59-5.47-10.13-12.61-15-12.61-15,10.2-9.27,14.38-18.93,9.9-34.56C170.31.5,156.89,0,156.89,0c17.88,23.3-9.08,36.4-9.08,36.4-38.31-9.81-46.11,18.45-46.11,18.45-20.52,2.37-27.57-21.35-27.57-21.35-3.28,13.78.93,22.38,6.56,27.69,2.17,2.04,4.55,3.59,6.79,4.76,4.88,2.54,9.11,3.27,9.11,3.27-.77,6.7,1.25,12.28,3.51,16.25,2.35,4.12,4.95,6.48,4.95,6.48-.17-3.13,2.44-6.91,4.54-9.43,1.38-1.65,2.53-2.76,2.53-2.76-.13.66-.22,1.3-.28,1.93-.77,7.44,2.86,13.06,7.4,17.1,2.44,2.17,5.36,3.45,8.37,3.9-14.27,1.08-17.73-11.96-17.73-11.96-2.45,3.22-1.53,8.66-1.53,8.66-6.53-3.77-10.3-8.5-12.46-12.93-3.53-7.24-2.78-13.65-2.78-13.65-3.8-1.09-7.27-2.82-10.11-4.56-12.51,6.24-25.85,11.41-37.94,15.28-5.92,1.89-11.06,3.99-15.53,6.21l-.48,4.94-1.07,11.07,46.7-19.04.51-.21,1.22-.5.07.8.03.34,3.26,38.08,8.33-3.16c-.05-.42-.09-.85-.09-1.28,0-6.04,5.4-10.84,11.62-9.83,3.87.63,7.05,3.59,8,7.39.54,2.16.33,4.23-.38,6.04-.04.11-.09.21-.14.31-1.53,3.55-5.04,6.04-9.14,6.04-2.93,0-5.56-1.29-7.39-3.31-.08-.09-.16-.16-.24-.25-.22-.26-.43-.53-.62-.82l-4,1.51-1.26.48-8.76,3.32-.18-2.04-.02-.29-3.15-36.72-49.69,20.26,1.41-14.57.58-5.96c-14.46,8.39-20.44,17.92-22.92,24.27-1.57,4.17-1.63,6.9-1.63,6.9,2.76-3.68,9.01-5.52,9.01-5.52-.14.13-.26.26-.39.39.18-.06.28-.09.28-.09-6.24,9.24-5.84,23-5.49,27.7,2.41-2.45,5.57-5.25,7.87-7.23,1.59-1.37,2.75-2.33,3-2.54.02-.02.05-.04.06-.05,0,0,.01,0,.01,0,0,0,0,0,0,0h.01s19.99-8.16,19.99-8.16c-.08-.5-.13-1.01-.13-1.53,0-5.87,5.11-10.57,11.11-9.9,4.37.49,7.97,3.92,8.68,8.26.45,2.78-.27,5.37-1.73,7.41-.08.11-.18.21-.26.32-1.82,2.34-4.65,3.86-7.84,3.86-2.39,0-4.58-.86-6.3-2.28-.11-.09-.22-.17-.32-.26-.55-.49-1.05-1.04-1.48-1.64l-5.91,2.41-.96.39-16.31,6.65c-.24.75-.49,1.48-.74,2.2-3.37,9.52-8.37,15.38-9.35,16.48.78,1.41,1.34,2.84,1.71,4.27l-.16.14c2.93,10.76-4.48,21.53-4.48,21.53h26.05l-3.98-20.54c16.86-3.07,31.95-22.99,31.95-22.99,5.16,4.82,10.57,8.19,16.09,10.48-3.27.65-7.65.76-13.49-.28l-6.05,33.33h17.24s.1-10.59,2.41-18.01c1.68-5.37,7.54-9.08,13.18-11.48,12.05,1.63,23.95-.61,34.11-3.24,1.08,1.8,1.76,4.13,1.59,7.12-.57,10.18.12,25.61.12,25.61h23.98l-6.62-37.51c-.16-.1-.28-.18-.38-.24-.12-.07-.2-.13-.2-.13,0,0,.17-.1.46-.26,2.26-1.24,12.35-6.33,19.15-2.4,0,0-5.65.07-9.4,4.49,11.69,11.22,5.49,36.04,5.49,36.04h24.21s-6.43-15.81-8.77-30.43c2.38,2.26,6.07,5.86,7.32,8.52,0,0,7.51-25.52,1.46-40,0,0,7.05,5.52,8.43,9.2,0,0,3.06-43.36-13.27-57.3Zm-26.51-.26c-2.67,2.43-6.01,4.5-6.01,4.5,0,0,.13-2.75.87-5.6.12-.47.26-.95.42-1.41,1.04-3.07,2.89-5.72,6.17-4.44,1.25.49,1.78,1.19,1.82,2,.07,1.46-1.44,3.29-3.26,4.95Z"/><path class="cls-1" d="m49.67,126.52c0-2.96-2.41-5.36-5.36-5.36s-5.19,2.24-5.35,5.06c0,.1-.02.2-.02.3,0,1.57.68,2.97,1.75,3.95.95.87,2.22,1.41,3.61,1.41,2.96,0,5.36-2.41,5.36-5.36Z"/><path class="cls-1" d="m97.97,126.15c.86,0,1.68-.21,2.4-.57,1.76-.88,2.97-2.7,2.97-4.79,0-2.96-2.41-5.36-5.36-5.36s-5.12,2.17-5.34,4.93c-.01.14-.02.29-.02.43,0,1.52.64,2.89,1.65,3.86.8.77,1.83,1.29,2.98,1.44.24.03.49.06.74.06Z"/></g></svg>